<?xml version="1.0" standalone="no"?>
<!DOCTYPE svg PUBLIC "-//W3C//DTD SVG 20010904//EN"
 "http://www.w3.org/TR/2001/REC-SVG-20010904/DTD/svg10.dtd">
<svg version="1.0" xmlns="http://www.w3.org/2000/svg"
 width="700.000000pt" height="700.000000pt" viewBox="0 0 700.000000 700.000000"
 preserveAspectRatio="xMidYMid meet">
<metadata>
Created by potrace 1.11, written by Peter Selinger 2001-2013
</metadata>
<g transform="translate(0.000000,700.000000) scale(0.100000,-0.100000)"
fill="#000000" stroke="none">
<path d="M2039 6481 c-1 -12 -8 -41 -64 -266 -31 -126 -58 -237 -60 -245 -2
-8 -24 -100 -50 -205 -87 -356 -124 -510 -135 -559 l-11 -49 466 -463 c256
-255 464 -464 462 -464 -2 0 -43 7 -91 15 -47 8 -103 18 -122 21 -20 3 -46 8
-58 10 -20 4 -89 15 -180 30 -21 3 -48 8 -60 10 -11 2 -37 7 -56 10 -19 3 -46
7 -60 10 -14 2 -41 7 -60 10 -19 2 -48 7 -65 11 -17 3 -121 74 -235 159 -113
84 -214 160 -225 168 -171 128 -462 347 -470 353 -31 26 -205 153 -209 153 -2
0 -14 -15 -25 -33 -11 -18 -29 -44 -40 -57 -92 -111 -281 -374 -274 -381 8 -7
266 -203 778 -593 160 -121 295 -225 302 -231 62 -54 145 -105 178 -110 42 -6
196 -32 230 -39 23 -4 86 -14 130 -21 99 -15 115 -18 115 -25 0 -6 -44 -20
-112 -36 -5 -1 -9 -2 -10 -4 -2 -1 -10 -3 -18 -5 -8 -2 -80 -23 -160 -45 -80
-23 -152 -44 -160 -46 -8 -2 -100 -28 -204 -58 l-189 -54 -196 -195 c-108
-108 -315 -313 -461 -456 l-265 -260 208 -208 208 -207 407 412 407 412 155
44 c326 93 518 146 524 146 4 0 -7 -12 -26 -27 -18 -16 -38 -32 -44 -38 -6 -5
-35 -30 -64 -55 -29 -25 -58 -50 -64 -55 -12 -11 -264 -226 -305 -260 -13 -11
-29 -25 -35 -31 -6 -5 -60 -53 -121 -104 -60 -52 -121 -104 -135 -116 -38 -33
-272 -234 -298 -255 -12 -10 -22 -27 -23 -36 -4 -78 -3 -1557 1 -1567 4 -10
68 -12 293 -12 l287 0 0 661 0 662 132 114 c73 63 146 126 163 140 160 140
164 143 166 112 0 -10 2 -25 4 -33 2 -8 6 -24 9 -36 2 -11 18 -62 35 -112 63
-189 159 -347 298 -489 105 -107 207 -184 334 -252 129 -68 248 -108 414 -137
81 -15 314 -12 415 5 407 69 765 333 949 700 45 88 105 261 116 328 4 24 10
43 13 43 7 0 72 -54 187 -155 33 -29 76 -65 95 -81 19 -16 40 -33 46 -39 6 -5
36 -32 67 -59 l57 -48 0 -662 0 -663 290 0 c287 0 290 1 291 21 1 12 2 369 2
795 l2 774 -150 129 c-82 71 -161 139 -175 152 -14 12 -119 103 -235 201 -115
99 -215 184 -221 190 -6 5 -35 30 -64 55 -59 49 -132 112 -140 120 -3 3 -33
30 -68 59 -34 30 -61 56 -59 58 2 1 154 -40 338 -92 l334 -95 408 -413 407
-412 208 208 207 207 -390 386 c-214 212 -426 421 -470 464 l-80 80 -215 60
c-118 34 -222 63 -230 65 -22 6 -142 40 -230 65 -41 12 -101 29 -133 37 -32 9
-56 17 -55 19 2 1 21 5 43 8 102 12 244 32 295 41 14 2 48 7 75 10 28 3 59 8
70 10 11 2 29 4 41 4 17 1 481 349 960 719 34 26 111 85 172 132 68 52 108 89
104 96 -16 27 -337 453 -342 454 -3 0 -26 -17 -52 -37 -25 -21 -73 -57 -105
-80 -32 -23 -67 -49 -78 -58 -11 -9 -72 -54 -135 -101 -63 -46 -122 -90 -130
-97 -8 -6 -121 -91 -250 -187 -269 -201 -240 -179 -306 -230 -32 -24 -67 -42
-90 -45 -51 -8 -133 -22 -234 -39 -72 -13 -288 -49 -307 -51 -12 -2 -34 -6
-50 -9 -15 -3 -43 -8 -60 -11 -18 -3 -47 -7 -64 -10 -26 -5 47 72 436 459
l467 465 -56 233 c-56 231 -66 273 -67 283 0 2 -5 19 -10 37 -6 18 -12 42 -14
53 -3 11 -25 103 -50 205 -26 102 -48 193 -50 203 -2 10 -20 85 -40 167 -30
123 -39 147 -53 144 -9 -2 -90 -22 -180 -44 -89 -22 -173 -42 -185 -44 -84
-18 -190 -45 -195 -51 -3 -3 23 -116 57 -252 34 -137 64 -259 67 -273 3 -14
31 -127 62 -252 l58 -226 -161 -168 -161 -167 -14 33 c-23 56 -104 172 -161
231 -92 96 -211 173 -334 216 -57 20 -81 27 -150 41 -16 4 -86 6 -155 6 -96
-1 -145 -6 -210 -23 -240 -64 -436 -219 -555 -442 l-31 -58 -164 164 -164 164
22 88 c12 48 46 183 76 298 125 484 156 605 156 613 0 8 -106 39 -195 58 -11
2 -102 24 -202 47 -101 24 -183 41 -184 38z"/>
</g>
</svg>
